<svg width="294" height="120" viewBox="0 0 294 120" fill="none" xmlns="http://www.w3.org/2000/svg">
<g clip-path="url(#clip0_375_5)">
<path d="M16.275 11.1375C17.325 4.725 22.8 0 29.25 0H35.475C43.6125 0 49.7625 7.3875 48.45 15.525L33.1125 108.863C32.0625 115.275 26.5875 120 20.1375 120H13.9125C5.77501 120 -0.374985 112.613 0.937515 104.475L16.275 11.1375Z" fill="#31FCD8"/>
<path d="M16.275 11.1375C17.325 4.725 22.8 0 29.25 0H35.475C43.6125 0 49.7625 7.3875 48.45 15.525L33.1125 108.863C32.0625 115.275 26.5875 120 20.1375 120H13.9125C5.77501 120 -0.374985 112.613 0.937515 104.475L16.275 11.1375Z" fill="#31FCD8"/>
<path d="M56.0625 11.1375C57.1125 4.725 62.5875 0 69.0375 0H90.75L88.2 15.45V15.525L81.6375 55.5375C80.5875 61.95 75.1125 66.675 68.6625 66.675H46.95L56.0625 11.1375Z" fill="#31FCD8"/>
<path d="M56.0625 11.1375C57.1125 4.725 62.5875 0 69.0375 0H90.75L88.2 15.45V15.525L81.6375 55.5375C80.5875 61.95 75.1125 66.675 68.6625 66.675H46.95L56.0625 11.1375Z" fill="#31FCD8"/>
<path d="M120.186 48.2372L115.5 78.1788H124.648L129.334 48.2372H137.807L138.932 41.0707H130.346L131.546 33.4165H140.882L142.007 26.25H131.509C129.034 26.25 127.01 26.8503 125.397 28.0885C123.86 29.3267 122.886 31.2403 122.473 33.8292L121.348 41.0707H114.375L113.25 48.2372H120.186Z" fill="white"/>
<path d="M140.769 78.1781L146.582 41.07H155.807L149.994 78.1781H140.769Z" fill="white"/>
<path d="M151.907 36.9802C150.482 36.9802 149.319 36.4924 148.419 35.4794C147.594 34.4663 147.294 33.2281 147.519 31.7648C147.744 30.3015 148.419 29.1008 149.582 28.1253C150.782 27.1122 152.094 26.5869 153.519 26.5869C154.944 26.5869 156.107 27.1122 156.932 28.1253C157.794 29.1008 158.132 30.339 157.907 31.7648C157.682 33.1906 156.969 34.4288 155.769 35.4794C154.607 36.4549 153.332 36.9802 151.907 36.9802Z" fill="white"/>
<path d="M204.881 78.1781L210.693 41.07H219.918L214.106 78.1781H204.881Z" fill="white"/>
<path d="M215.906 36.9802C214.481 36.9802 213.318 36.4924 212.418 35.4794C211.593 34.4663 211.293 33.2281 211.518 31.7648C211.743 30.3015 212.418 29.1008 213.581 28.1253C214.781 27.1122 216.093 26.5869 217.518 26.5869C218.943 26.5869 220.106 27.1122 220.931 28.1253C221.793 29.1008 222.131 30.339 221.906 31.7648C221.681 33.1906 220.968 34.4288 219.768 35.4794C218.606 36.4549 217.331 36.9802 215.906 36.9802Z" fill="white"/>
<path d="M227.489 76.5288C230.151 78.1047 233.375 78.8926 237.199 78.8926L237.124 78.8551C242.111 78.8551 246.347 77.6169 249.872 75.1405C253.396 72.6266 255.908 69.1372 257.408 64.6347H248.147C246.422 68.762 243.161 70.8256 238.399 70.8256C235.362 70.8256 233.075 69.8876 231.576 67.9365C230.076 65.9479 229.588 63.1714 230.151 59.5694C230.713 55.9674 232.063 53.2284 234.163 51.2773C236.3 49.2887 238.887 48.3131 241.923 48.3131C244.173 48.3131 245.898 48.8009 247.21 49.7389C248.522 50.677 249.309 52.1027 249.647 53.9413H258.87C258.72 49.6639 257.295 46.3245 254.521 43.9232C251.784 41.4843 247.997 40.2837 243.236 40.2837C239.374 40.2837 235.887 41.0716 232.738 42.685C229.588 44.2609 227.001 46.4746 224.939 49.3637C222.952 52.2528 221.603 55.6672 221.003 59.5694C220.403 63.4716 220.703 66.886 221.828 69.7751C222.952 72.6642 224.864 74.9154 227.489 76.5288Z" fill="white"/>
<path d="M261.232 75.5533C263.969 77.767 268.018 78.8926 273.379 78.8926L273.417 78.8551C278.591 78.8551 282.753 77.8045 285.827 75.7034C288.901 73.6022 290.738 70.6756 291.338 66.9235C291.788 63.9968 291.263 61.6706 289.764 59.9446C288.264 58.2186 285.677 56.9804 282.003 56.23L273.904 54.6166C272.405 54.3165 271.355 53.8662 270.755 53.3034C270.155 52.7406 269.93 51.9527 270.08 51.0146C270.305 49.7389 271.017 48.8009 272.217 48.1255C273.454 47.4877 275.104 47.15 277.204 47.15C279.566 47.15 281.29 47.6002 282.378 48.4632C283.502 49.2887 284.177 50.6394 284.327 52.478H293.213C293.475 48.6133 292.351 45.6116 289.801 43.5105C287.289 41.3718 283.615 40.2837 278.741 40.2837C273.867 40.2837 269.893 41.3343 266.818 43.4354C263.744 45.4991 261.944 48.3131 261.382 51.8026C260.52 57.2431 263.594 60.695 270.643 62.0833L278.553 63.6216C280.203 63.9593 281.328 64.4471 281.928 65.0474C282.565 65.6478 282.828 66.5107 282.64 67.6364C282.19 70.3754 279.603 71.7637 274.879 71.7637C272.067 71.7637 270.005 71.3134 268.655 70.4129C267.306 69.4749 266.668 68.0491 266.668 66.098H257.708C257.333 70.1127 258.495 73.302 261.232 75.5533Z" fill="white"/>
<path fill-rule="evenodd" clip-rule="evenodd" d="M161.24 90.4115C164.277 92.6253 168.551 93.7509 173.987 93.7509L173.95 93.7134C180.136 93.7134 185.122 92.2876 188.909 89.3985C192.696 86.5469 194.983 82.5321 195.808 77.2792L200.007 50.5H196.04C195.419 50.5 194.948 49.9395 195.055 49.3276L195.469 46.9624H193.183C192.208 44.8237 190.709 43.1728 188.722 42.0096C186.734 40.8465 184.185 40.2837 181.148 40.2837C175.599 40.2837 170.95 42.0096 167.239 45.424C163.564 48.8759 161.277 53.4535 160.377 59.2317C159.778 63.0588 159.965 66.3982 160.902 69.2498C161.84 72.0638 163.489 74.2776 165.851 75.8534C168.213 77.3918 171.138 78.1422 174.587 78.1422C177.399 78.1422 179.911 77.6169 182.085 76.5288C184.26 75.4782 186.06 73.9024 187.447 71.8387H187.747L186.922 77.1667C186.472 80.0933 185.197 82.3445 183.098 83.9204C181.036 85.5338 178.299 86.3217 174.887 86.3217C169.713 86.3217 166.901 84.5958 166.414 81.1814H156.703C156.703 85.1211 158.203 88.1978 161.24 90.4115ZM185.535 67.6364C183.548 69.2873 181.073 70.1127 178.111 70.1127L178.074 70.0752C174.812 70.0752 172.45 69.1372 170.913 67.2987C169.451 65.4226 168.963 62.7211 169.526 59.2692C170.088 55.8173 171.4 53.1533 173.462 51.2398C175.599 49.3262 178.261 48.3507 181.523 48.3507C184.447 48.3507 186.66 49.1761 188.122 50.827C189.621 52.478 190.184 54.6917 189.734 57.5057L189.209 60.8451C188.759 63.6967 187.522 65.9479 185.535 67.6364Z" fill="white"/>
<path d="M196.455 41.3276C196.539 40.8491 196.954 40.5 197.44 40.5H205.41C206.031 40.5 206.502 41.0605 206.395 41.6724L204.995 49.6724C204.911 50.1509 204.496 50.5 204.01 50.5H196.04C195.419 50.5 194.948 49.9395 195.055 49.3276L196.455 41.3276Z" fill="#31FCD8"/>
</g>
<defs>
<clipPath id="clip0_375_5">
<rect width="292.5" height="120" fill="white" transform="translate(0.75)"/>
</clipPath>
</defs>
</svg>
