<svg width="293" height="120" viewBox="0 0 293 120" fill="none" xmlns="http://www.w3.org/2000/svg">
<g clip-path="url(#clip0_375_5)">
<path d="M15.525 11.1375C16.575 4.725 22.05 0 28.5 0H34.725C42.8625 0 49.0125 7.3875 47.7 15.525L32.3625 108.863C31.3125 115.275 25.8375 120 19.3875 120H13.1625C5.02501 120 -1.12499 112.613 0.187515 104.475L15.525 11.1375Z" fill="#31FCD8"/>
<path d="M15.525 11.1375C16.575 4.725 22.05 0 28.5 0H34.725C42.8625 0 49.0125 7.3875 47.7 15.525L32.3625 108.863C31.3125 115.275 25.8375 120 19.3875 120H13.1625C5.02501 120 -1.12499 112.613 0.187515 104.475L15.525 11.1375Z" fill="#31FCD8"/>
<path d="M55.3125 11.1375C56.3625 4.725 61.8375 0 68.2875 0H90L87.45 15.45V15.525L80.8875 55.5375C79.8375 61.95 74.3625 66.675 67.9125 66.675H46.2L55.3125 11.1375Z" fill="#31FCD8"/>
<path d="M55.3125 11.1375C56.3625 4.725 61.8375 0 68.2875 0H90L87.45 15.45V15.525L80.8875 55.5375C79.8375 61.95 74.3625 66.675 67.9125 66.675H46.2L55.3125 11.1375Z" fill="#31FCD8"/>
<path d="M119.436 48.2372L114.75 78.1788H123.898L128.584 48.2372H137.057L138.182 41.0707H129.596L130.796 33.4165H140.132L141.257 26.25H130.759C128.284 26.25 126.26 26.8503 124.647 28.0885C123.11 29.3267 122.136 31.2403 121.723 33.8292L120.598 41.0707H113.625L112.5 48.2372H119.436Z" fill="white"/>
<path d="M140.019 78.1781L145.832 41.07H155.057L149.244 78.1781H140.019Z" fill="white"/>
<path d="M151.157 36.9802C149.732 36.9802 148.569 36.4924 147.669 35.4794C146.844 34.4663 146.544 33.2281 146.769 31.7648C146.994 30.3015 147.669 29.1008 148.832 28.1253C150.032 27.1122 151.344 26.5869 152.769 26.5869C154.194 26.5869 155.357 27.1122 156.182 28.1253C157.044 29.1008 157.382 30.339 157.157 31.7648C156.932 33.1906 156.219 34.4288 155.019 35.4794C153.857 36.4549 152.582 36.9802 151.157 36.9802Z" fill="white"/>
<path d="M204.131 78.1781L209.943 41.07H219.168L213.356 78.1781H204.131Z" fill="white"/>
<path d="M215.156 36.9802C213.731 36.9802 212.568 36.4924 211.668 35.4794C210.843 34.4663 210.543 33.2281 210.768 31.7648C210.993 30.3015 211.668 29.1008 212.831 28.1253C214.031 27.1122 215.343 26.5869 216.768 26.5869C218.193 26.5869 219.356 27.1122 220.181 28.1253C221.043 29.1008 221.381 30.339 221.156 31.7648C220.931 33.1906 220.218 34.4288 219.018 35.4794C217.856 36.4549 216.581 36.9802 215.156 36.9802Z" fill="white"/>
<path d="M226.739 76.5288C229.401 78.1047 232.625 78.8926 236.449 78.8926L236.374 78.8551C241.361 78.8551 245.597 77.6169 249.122 75.1405C252.646 72.6266 255.158 69.1372 256.658 64.6347H247.397C245.672 68.762 242.411 70.8256 237.649 70.8256C234.612 70.8256 232.325 69.8876 230.826 67.9365C229.326 65.9479 228.838 63.1714 229.401 59.5694C229.963 55.9674 231.313 53.2284 233.413 51.2773C235.55 49.2887 238.137 48.3131 241.173 48.3131C243.423 48.3131 245.148 48.8009 246.46 49.7389C247.772 50.677 248.559 52.1027 248.897 53.9413H258.12C257.97 49.6639 256.545 46.3245 253.771 43.9232C251.034 41.4843 247.247 40.2837 242.486 40.2837C238.624 40.2837 235.137 41.0716 231.988 42.685C228.838 44.2609 226.251 46.4746 224.189 49.3637C222.202 52.2528 220.853 55.6672 220.253 59.5694C219.653 63.4716 219.953 66.886 221.078 69.7751C222.202 72.6642 224.114 74.9154 226.739 76.5288Z" fill="white"/>
<path d="M260.482 75.5533C263.219 77.767 267.268 78.8926 272.629 78.8926L272.667 78.8551C277.841 78.8551 282.003 77.8045 285.077 75.7034C288.151 73.6022 289.988 70.6756 290.588 66.9235C291.038 63.9968 290.513 61.6706 289.014 59.9446C287.514 58.2186 284.927 56.9804 281.253 56.23L273.154 54.6166C271.655 54.3165 270.605 53.8662 270.005 53.3034C269.405 52.7406 269.18 51.9527 269.33 51.0146C269.555 49.7389 270.267 48.8009 271.467 48.1255C272.704 47.4877 274.354 47.15 276.454 47.15C278.816 47.15 280.54 47.6002 281.628 48.4632C282.752 49.2887 283.427 50.6394 283.577 52.478H292.463C292.725 48.6133 291.601 45.6116 289.051 43.5105C286.539 41.3718 282.865 40.2837 277.991 40.2837C273.117 40.2837 269.143 41.3343 266.068 43.4354C262.994 45.4991 261.194 48.3131 260.632 51.8026C259.77 57.2431 262.844 60.695 269.893 62.0833L277.803 63.6216C279.453 63.9593 280.578 64.4471 281.178 65.0474C281.815 65.6478 282.078 66.5107 281.89 67.6364C281.44 70.3754 278.853 71.7637 274.129 71.7637C271.317 71.7637 269.255 71.3134 267.905 70.4129C266.556 69.4749 265.918 68.0491 265.918 66.098H256.958C256.583 70.1127 257.745 73.302 260.482 75.5533Z" fill="white"/>
<path fill-rule="evenodd" clip-rule="evenodd" d="M160.49 90.4115C163.527 92.6253 167.801 93.7509 173.237 93.7509L173.2 93.7134C179.386 93.7134 184.372 92.2876 188.159 89.3985C191.946 86.5469 194.233 82.5321 195.058 77.2792L199.257 50.5H195.29C194.669 50.5 194.198 49.9395 194.305 49.3276L194.719 46.9624H192.433C191.458 44.8237 189.959 43.1728 187.972 42.0096C185.984 40.8465 183.435 40.2837 180.398 40.2837C174.849 40.2837 170.2 42.0096 166.489 45.424C162.814 48.8759 160.527 53.4535 159.627 59.2317C159.028 63.0588 159.215 66.3982 160.152 69.2498C161.09 72.0638 162.739 74.2776 165.101 75.8534C167.463 77.3918 170.388 78.1422 173.837 78.1422C176.649 78.1422 179.161 77.6169 181.335 76.5288C183.51 75.4782 185.31 73.9024 186.697 71.8387H186.997L186.172 77.1667C185.722 80.0933 184.447 82.3445 182.348 83.9204C180.286 85.5338 177.549 86.3217 174.137 86.3217C168.963 86.3217 166.151 84.5958 165.664 81.1814H155.953C155.953 85.1211 157.453 88.1978 160.49 90.4115ZM184.785 67.6364C182.798 69.2873 180.323 70.1127 177.361 70.1127L177.324 70.0752C174.062 70.0752 171.7 69.1372 170.163 67.2987C168.701 65.4226 168.213 62.7211 168.776 59.2692C169.338 55.8173 170.65 53.1533 172.712 51.2398C174.849 49.3262 177.511 48.3507 180.773 48.3507C183.697 48.3507 185.91 49.1761 187.372 50.827C188.871 52.478 189.434 54.6917 188.984 57.5057L188.459 60.8451C188.009 63.6967 186.772 65.9479 184.785 67.6364Z" fill="white"/>
<path d="M195.705 41.3276C195.789 40.8491 196.204 40.5 196.69 40.5H204.66C205.281 40.5 205.752 41.0605 205.645 41.6724L204.245 49.6724C204.161 50.1509 203.746 50.5 203.26 50.5H195.29C194.669 50.5 194.198 49.9395 194.305 49.3276L195.705 41.3276Z" fill="#31FCD8"/>
</g>
<defs>
<clipPath id="clip0_375_5">
<rect width="292.5" height="120" fill="white"/>
</clipPath>
</defs>
</svg>
