<svg width="180" height="68" viewBox="0 0 180 68" fill="none" xmlns="http://www.w3.org/2000/svg">
<path d="M6.93607 21.9872L2.24953 51.9288H11.3976L16.0842 21.9872H24.5574L25.6822 14.8207H17.0965L18.2962 7.16648H27.6318L28.7566 0H18.2587C15.7842 0 13.7597 0.600332 12.1475 1.83852C10.6103 3.07671 9.63551 4.99027 9.2231 7.57921L8.09834 14.8207H1.12477L0 21.9872H6.93607Z" fill="white"/>
<path d="M27.5192 51.9281L33.3317 14.82H42.5567L36.7442 51.9281H27.5192Z" fill="white"/>
<path d="M38.6567 10.7302C37.2317 10.7302 36.0692 10.2424 35.1692 9.22935C34.3442 8.21629 34.0442 6.9781 34.2692 5.51479C34.4942 4.05148 35.1692 2.85081 36.3317 1.87527C37.5317 0.862207 38.8442 0.336914 40.2692 0.336914C41.6942 0.336914 42.8567 0.862207 43.6817 1.87527C44.5442 2.85081 44.8817 4.089 44.6567 5.51479C44.4317 6.94058 43.7192 8.17877 42.5192 9.22935C41.3567 10.2049 40.0817 10.7302 38.6567 10.7302Z" fill="white"/>
<path d="M91.6308 51.9281L97.4433 14.82H106.668L100.856 51.9281H91.6308Z" fill="white"/>
<path d="M102.656 10.7302C101.231 10.7302 100.068 10.2424 99.1683 9.22935C98.3433 8.21629 98.0433 6.9781 98.2683 5.51479C98.4933 4.05148 99.1683 2.85081 100.331 1.87527C101.531 0.862207 102.843 0.336914 104.268 0.336914C105.693 0.336914 106.856 0.862207 107.681 1.87527C108.543 2.85081 108.881 4.089 108.656 5.51479C108.431 6.94058 107.718 8.17877 106.518 9.22935C105.356 10.2049 104.081 10.7302 102.656 10.7302Z" fill="white"/>
<path d="M114.239 50.2788C116.901 51.8547 120.125 52.6426 123.949 52.6426L123.874 52.6051C128.861 52.6051 133.097 51.3669 136.622 48.8905C140.146 46.3766 142.658 42.8872 144.158 38.3847H134.897C133.172 42.512 129.911 44.5756 125.149 44.5756C122.112 44.5756 119.825 43.6376 118.326 41.6865C116.826 39.6979 116.338 36.9214 116.901 33.3194C117.463 29.7174 118.813 26.9784 120.913 25.0273C123.05 23.0387 125.637 22.0631 128.673 22.0631C130.923 22.0631 132.648 22.5509 133.96 23.4889C135.272 24.427 136.059 25.8527 136.397 27.6913H145.62C145.47 23.4139 144.045 20.0745 141.271 17.6732C138.534 15.2343 134.747 14.0337 129.986 14.0337C126.124 14.0337 122.637 14.8216 119.488 16.435C116.338 18.0109 113.751 20.2246 111.689 23.1137C109.702 26.0028 108.353 29.4172 107.753 33.3194C107.153 37.2216 107.453 40.636 108.578 43.5251C109.702 46.4142 111.614 48.6654 114.239 50.2788Z" fill="white"/>
<path d="M147.982 49.3033C150.719 51.517 154.768 52.6426 160.129 52.6426L160.167 52.6051C165.341 52.6051 169.503 51.5545 172.577 49.4534C175.651 47.3522 177.488 44.4256 178.088 40.6735C178.538 37.7468 178.013 35.4206 176.514 33.6946C175.014 31.9686 172.427 30.7304 168.753 29.98L160.654 28.3666C159.155 28.0665 158.105 27.6162 157.505 27.0534C156.905 26.4906 156.68 25.7027 156.83 24.7646C157.055 23.4889 157.767 22.5509 158.967 21.8755C160.204 21.2377 161.854 20.9 163.954 20.9C166.316 20.9 168.04 21.3502 169.128 22.2132C170.252 23.0387 170.927 24.3894 171.077 26.228H179.963C180.225 22.3633 179.101 19.3616 176.551 17.2605C174.039 15.1218 170.365 14.0337 165.491 14.0337C160.617 14.0337 156.643 15.0843 153.568 17.1854C150.494 19.2491 148.694 22.0631 148.132 25.5526C147.27 30.9931 150.344 34.445 157.393 35.8333L165.303 37.3716C166.953 37.7093 168.078 38.1971 168.678 38.7974C169.315 39.3978 169.578 40.2607 169.39 41.3864C168.94 44.1254 166.353 45.5137 161.629 45.5137C158.817 45.5137 156.755 45.0634 155.405 44.1629C154.056 43.2249 153.418 41.7991 153.418 39.848H144.458C144.083 43.8627 145.245 47.052 147.982 49.3033Z" fill="white"/>
<path fill-rule="evenodd" clip-rule="evenodd" d="M47.9898 64.1615C51.0266 66.3753 55.3008 67.5009 60.7371 67.5009L60.6996 67.4634C66.8859 67.4634 71.8723 66.0376 75.659 63.1485C79.4458 60.2969 81.7328 56.2821 82.5576 51.0292L86.7573 24.25H82.7902C82.1689 24.25 81.6981 23.6895 81.8051 23.0776L82.2191 20.7124H79.9332C78.9584 18.5737 77.4587 16.9228 75.4716 15.7596C73.4845 14.5965 70.935 14.0337 67.8981 14.0337C62.3493 14.0337 57.7003 15.7596 53.9885 19.174C50.3143 22.6259 48.0273 27.2035 47.1275 32.9817C46.5276 36.8088 46.715 40.1482 47.6523 42.9998C48.5896 45.8138 50.2393 48.0276 52.6013 49.6034C54.9633 51.1418 57.8877 51.8922 61.337 51.8922C64.1489 51.8922 66.6609 51.3669 68.8354 50.2788C71.01 49.2282 72.8096 47.6524 74.1968 45.5887H74.4968L73.672 50.9167C73.222 53.8433 71.9473 56.0945 69.8477 57.6704C67.7857 59.2838 65.0487 60.0717 61.6369 60.0717C56.463 60.0717 53.6511 58.3458 53.1637 54.9314H43.4532C43.4532 58.8711 44.9529 61.9478 47.9898 64.1615ZM72.2848 41.3864C70.2977 43.0373 67.8232 43.8627 64.8613 43.8627L64.8238 43.8252C61.562 43.8252 59.2 42.8872 57.6628 41.0487C56.2006 39.1726 55.7132 36.4711 56.2756 33.0192C56.8379 29.5673 58.1502 26.9033 60.2122 24.9898C62.3493 23.0762 65.0113 22.1007 68.2731 22.1007C71.1975 22.1007 73.4095 22.9261 74.8717 24.577C76.3714 26.228 76.9338 28.4417 76.4839 31.2557L75.959 34.5951C75.5091 37.4467 74.2718 39.6979 72.2848 41.3864Z" fill="white"/>
<path d="M83.2051 15.0776C83.2889 14.5991 83.7044 14.25 84.1902 14.25H92.1598C92.781 14.25 93.2519 14.8105 93.1448 15.4224L91.7448 23.4224C91.6611 23.9009 91.2456 24.25 90.7598 24.25H82.7902C82.169 24.25 81.6981 23.6895 81.8051 23.0776L83.2051 15.0776Z" fill="#31FCD8"/>
</svg>
