<svg width="293" height="120" viewBox="0 0 293 120" fill="none" xmlns="http://www.w3.org/2000/svg">
<g clip-path="url(#clip0_375_16)">
<path d="M16.025 11.1375C17.075 4.725 22.55 0 29 0H35.225C43.3625 0 49.5125 7.3875 48.2 15.525L32.8625 108.863C31.8125 115.275 26.3375 120 19.8875 120H13.6625C5.525 120 -0.625 112.613 0.6875 104.475L16.025 11.1375Z" fill="#3FBEA7"/>
<path d="M16.025 11.1375C17.075 4.725 22.55 0 29 0H35.225C43.3625 0 49.5125 7.3875 48.2 15.525L32.8625 108.863C31.8125 115.275 26.3375 120 19.8875 120H13.6625C5.525 120 -0.625 112.613 0.6875 104.475L16.025 11.1375Z" fill="#3FBEA7"/>
<path d="M55.8125 11.1375C56.8625 4.725 62.3375 0 68.7875 0H90.5L87.95 15.45V15.525L81.3875 55.5375C80.3375 61.95 74.8625 66.675 68.4125 66.675H46.7L55.8125 11.1375Z" fill="#3FBEA7"/>
<path d="M55.8125 11.1375C56.8625 4.725 62.3375 0 68.7875 0H90.5L87.95 15.45V15.525L81.3875 55.5375C80.3375 61.95 74.8625 66.675 68.4125 66.675H46.7L55.8125 11.1375Z" fill="#3FBEA7"/>
<path d="M119.936 48.2372L115.25 78.1788H124.398L129.084 48.2372H137.557L138.682 41.0707H130.096L131.296 33.4165H140.632L141.757 26.25H131.259C128.784 26.25 126.76 26.8503 125.147 28.0885C123.61 29.3267 122.636 31.2403 122.223 33.8292L121.098 41.0707H114.125L113 48.2372H119.936Z" fill="#1E1E1E"/>
<path d="M140.519 78.1781L146.332 41.07H155.557L149.744 78.1781H140.519Z" fill="#1E1E1E"/>
<path d="M151.657 36.9802C150.232 36.9802 149.069 36.4924 148.169 35.4794C147.344 34.4663 147.044 33.2281 147.269 31.7648C147.494 30.3015 148.169 29.1008 149.332 28.1253C150.532 27.1122 151.844 26.5869 153.269 26.5869C154.694 26.5869 155.857 27.1122 156.682 28.1253C157.544 29.1008 157.882 30.339 157.657 31.7648C157.432 33.1906 156.719 34.4288 155.519 35.4794C154.357 36.4549 153.082 36.9802 151.657 36.9802Z" fill="#1E1E1E"/>
<path d="M204.631 78.1781L210.443 41.07H219.668L213.856 78.1781H204.631Z" fill="#1E1E1E"/>
<path d="M215.656 36.9802C214.231 36.9802 213.068 36.4924 212.168 35.4794C211.343 34.4663 211.043 33.2281 211.268 31.7648C211.493 30.3015 212.168 29.1008 213.331 28.1253C214.531 27.1122 215.843 26.5869 217.268 26.5869C218.693 26.5869 219.856 27.1122 220.681 28.1253C221.543 29.1008 221.881 30.339 221.656 31.7648C221.431 33.1906 220.718 34.4288 219.518 35.4794C218.356 36.4549 217.081 36.9802 215.656 36.9802Z" fill="#1E1E1E"/>
<path d="M227.239 76.5288C229.901 78.1047 233.125 78.8926 236.949 78.8926L236.874 78.8551C241.861 78.8551 246.097 77.6169 249.622 75.1405C253.146 72.6266 255.658 69.1372 257.158 64.6347H247.897C246.172 68.762 242.911 70.8256 238.149 70.8256C235.112 70.8256 232.825 69.8876 231.326 67.9365C229.826 65.9479 229.338 63.1714 229.901 59.5694C230.463 55.9674 231.813 53.2284 233.913 51.2773C236.05 49.2887 238.637 48.3131 241.673 48.3131C243.923 48.3131 245.648 48.8009 246.96 49.7389C248.272 50.677 249.059 52.1027 249.397 53.9413H258.62C258.47 49.6639 257.045 46.3245 254.271 43.9232C251.534 41.4843 247.747 40.2837 242.986 40.2837C239.124 40.2837 235.637 41.0716 232.488 42.685C229.338 44.2609 226.751 46.4746 224.689 49.3637C222.702 52.2528 221.353 55.6672 220.753 59.5694C220.153 63.4716 220.453 66.886 221.578 69.7751C222.702 72.6642 224.614 74.9154 227.239 76.5288Z" fill="#1E1E1E"/>
<path d="M260.982 75.5533C263.719 77.767 267.768 78.8926 273.129 78.8926L273.167 78.8551C278.341 78.8551 282.503 77.8045 285.577 75.7034C288.651 73.6022 290.488 70.6756 291.088 66.9235C291.538 63.9968 291.013 61.6706 289.514 59.9446C288.014 58.2186 285.427 56.9804 281.753 56.23L273.654 54.6166C272.155 54.3165 271.105 53.8662 270.505 53.3034C269.905 52.7406 269.68 51.9527 269.83 51.0146C270.055 49.7389 270.767 48.8009 271.967 48.1255C273.204 47.4877 274.854 47.15 276.954 47.15C279.316 47.15 281.04 47.6002 282.128 48.4632C283.252 49.2887 283.927 50.6394 284.077 52.478H292.963C293.225 48.6133 292.101 45.6116 289.551 43.5105C287.039 41.3718 283.365 40.2837 278.491 40.2837C273.617 40.2837 269.643 41.3343 266.568 43.4354C263.494 45.4991 261.694 48.3131 261.132 51.8026C260.27 57.2431 263.344 60.695 270.393 62.0833L278.303 63.6216C279.953 63.9593 281.078 64.4471 281.678 65.0474C282.315 65.6478 282.578 66.5107 282.39 67.6364C281.94 70.3754 279.353 71.7637 274.629 71.7637C271.817 71.7637 269.755 71.3134 268.405 70.4129C267.056 69.4749 266.418 68.0491 266.418 66.098H257.458C257.083 70.1127 258.245 73.302 260.982 75.5533Z" fill="#1E1E1E"/>
<path fill-rule="evenodd" clip-rule="evenodd" d="M160.99 90.4115C164.027 92.6253 168.301 93.7509 173.737 93.7509L173.7 93.7134C179.886 93.7134 184.872 92.2876 188.659 89.3985C192.446 86.5469 194.733 82.5321 195.558 77.2792L199.757 50.5H195.79C195.169 50.5 194.698 49.9395 194.805 49.3276L195.219 46.9624H192.933C191.958 44.8237 190.459 43.1728 188.472 42.0096C186.484 40.8465 183.935 40.2837 180.898 40.2837C175.349 40.2837 170.7 42.0096 166.989 45.424C163.314 48.8759 161.027 53.4535 160.127 59.2317C159.528 63.0588 159.715 66.3982 160.652 69.2498C161.59 72.0638 163.239 74.2776 165.601 75.8534C167.963 77.3918 170.888 78.1422 174.337 78.1422C177.149 78.1422 179.661 77.6169 181.835 76.5288C184.01 75.4782 185.81 73.9024 187.197 71.8387H187.497L186.672 77.1667C186.222 80.0933 184.947 82.3445 182.848 83.9204C180.786 85.5338 178.049 86.3217 174.637 86.3217C169.463 86.3217 166.651 84.5958 166.164 81.1814H156.453C156.453 85.1211 157.953 88.1978 160.99 90.4115ZM185.285 67.6364C183.298 69.2873 180.823 70.1127 177.861 70.1127L177.824 70.0752C174.562 70.0752 172.2 69.1372 170.663 67.2987C169.201 65.4226 168.713 62.7211 169.276 59.2692C169.838 55.8173 171.15 53.1533 173.212 51.2398C175.349 49.3262 178.011 48.3507 181.273 48.3507C184.197 48.3507 186.41 49.1761 187.872 50.827C189.371 52.478 189.934 54.6917 189.484 57.5057L188.959 60.8451C188.509 63.6967 187.272 65.9479 185.285 67.6364Z" fill="#1E1E1E"/>
<path d="M196.205 41.3276C196.289 40.8491 196.704 40.5 197.19 40.5H205.16C205.781 40.5 206.252 41.0605 206.145 41.6724L204.745 49.6724C204.661 50.1509 204.246 50.5 203.76 50.5H195.79C195.169 50.5 194.698 49.9395 194.805 49.3276L196.205 41.3276Z" fill="#3FBEA7"/>
</g>
<defs>
<clipPath id="clip0_375_16">
<rect width="292.5" height="120" fill="white" transform="translate(0.5)"/>
</clipPath>
</defs>
</svg>
